# Blender v3.1.2 OBJ File: 'obamium.blend'
# www.blender.org
mtllib obamium.mtl
o Cone
v 0.698107 0.000000 0.698107
v 0.702538 0.007754 0.692444
v 0.692444 0.007754 0.702538
v 0.701871 0.001172 0.696278
v 0.696278 0.001172 0.701871
v 0.700679 0.002127 0.700679
v 0.700342 0.008954 0.696677
v 0.703439 0.003916 0.694273
v 0.701928 0.004471 0.699072
v 0.694274 0.003916 0.703439
v 0.696677 0.008954 0.700342
v 0.699072 0.004471 0.701928
v -0.698107 0.000000 0.698107
v -0.692444 0.007754 0.702538
v -0.702538 0.007754 0.692444
v -0.696278 0.001172 0.701871
v -0.701871 0.001172 0.696278
v -0.700679 0.002127 0.700679
v -0.696677 0.008954 0.700342
v -0.694273 0.003916 0.703439
v -0.699072 0.004471 0.701928
v -0.703439 0.003916 0.694274
v -0.700342 0.008954 0.696677
v -0.701928 0.004471 0.699073
v -0.698107 0.000000 -0.698107
v -0.702538 0.007754 -0.692444
v -0.692444 0.007754 -0.702538
v -0.701871 0.001172 -0.696278
v -0.696278 0.001172 -0.701871
v -0.700679 0.002127 -0.700679
v -0.700342 0.008954 -0.696677
v -0.703439 0.003916 -0.694273
v -0.701928 0.004471 -0.699072
v -0.694274 0.003916 -0.703439
v -0.696677 0.008954 -0.700342
v -0.699072 0.004471 -0.701928
v 0.698107 0.000000 -0.698107
v 0.692444 0.007754 -0.702538
v 0.702538 0.007754 -0.692444
v 0.696278 0.001172 -0.701871
v 0.701871 0.001172 -0.696278
v 0.700679 0.002127 -0.700679
v 0.696677 0.008954 -0.700342
v 0.694273 0.003916 -0.703439
v 0.699072 0.004471 -0.701928
v 0.703439 0.003916 -0.694274
v 0.700342 0.008954 -0.696677
v 0.701928 0.004471 -0.699073
v 0.010093 1.182871 0.000000
v -0.000000 1.182871 -0.010093
v -0.010093 1.182871 0.000000
v -0.000000 1.182871 0.010093
v 0.007898 1.184071 -0.004233
v 0.007898 1.184072 0.004233
v 0.004028 1.187543 0.000000
v -0.004233 1.184071 -0.007898
v 0.004233 1.184072 -0.007898
v -0.000000 1.187543 -0.004028
v -0.007898 1.184071 0.004233
v -0.007898 1.184071 -0.004233
v -0.004028 1.187543 0.000000
v 0.004233 1.184071 0.007898
v -0.004233 1.184072 0.007898
v -0.000000 1.187543 0.004028
vt 0.083434 0.997956
vt 0.384363 0.701103
vt 0.685506 0.997727
vt 0.685902 0.395687
vt 0.384840 0.691938
vt 0.084214 0.395827
vt 0.692710 0.995533
vt 0.391832 0.699203
vt 0.994201 0.699557
vt 0.993896 0.694558
vt 0.390874 0.694760
vt 0.692409 0.398610
vt 0.688117 0.391478
vt 0.689755 0.391025
vt 0.689236 0.392115
vt 0.687321 0.392410
vt 0.687173 0.998886
vt 0.686301 0.999684
vt 0.688388 0.999683
vt 0.689086 0.998575
vt 0.687346 0.997258
vt 0.688387 0.998273
vt 0.686301 0.998545
vt 0.689614 0.996805
vt 0.690646 0.997821
vt 0.693558 0.996333
vt 0.692101 0.997223
vt 0.691077 0.996204
vt 0.694856 0.997331
vt 0.693897 0.998271
vt 0.690027 0.997856
vt 0.690027 0.997856
vt 0.080832 0.391382
vt 0.081627 0.392313
vt 0.079713 0.392018
vt 0.079195 0.390929
vt 0.996801 0.699318
vt 0.997579 0.700145
vt 0.998624 0.699120
vt 0.997286 0.698222
vt 0.994411 0.698419
vt 0.996478 0.698415
vt 0.995845 0.699576
vt 0.994292 0.696715
vt 0.996361 0.696715
vt 0.995543 0.694540
vt 0.996174 0.695701
vt 0.994105 0.695696
vt 0.997715 0.694399
vt 0.998673 0.695340
vt 0.996665 0.697401
vt 0.996665 0.697401
vt 0.080976 0.046015
vt 0.079338 0.046468
vt 0.079857 0.045379
vt 0.081772 0.045083
vt 0.693343 0.397212
vt 0.694995 0.397242
vt 0.693950 0.396216
vt 0.691911 0.396426
vt 0.690775 0.397939
vt 0.691801 0.396920
vt 0.693259 0.397810
vt 0.689388 0.396571
vt 0.690420 0.395555
vt 0.686697 0.394869
vt 0.688782 0.395139
vt 0.687741 0.396153
vt 0.687569 0.393732
vt 0.689481 0.393732
vt 0.690345 0.396322
vt 0.690345 0.396322
vt 0.688427 0.045764
vt 0.687632 0.044833
vt 0.689546 0.045127
vt 0.690064 0.046216
vt 0.082550 0.394669
vt 0.083421 0.393873
vt 0.081336 0.393873
vt 0.080637 0.394980
vt 0.082375 0.396294
vt 0.081335 0.395281
vt 0.083420 0.395010
vt 0.080727 0.396712
vt 0.079696 0.395697
vt 0.082640 0.998775
vt 0.080553 0.998505
vt 0.081594 0.997489
vt 0.081769 0.999915
vt 0.079855 0.999915
vt 0.079696 0.395697
vt 0.382523 0.700636
vt 0.384362 0.699558
vt 0.386203 0.700635
vt 0.381408 0.692809
vt 0.381352 0.692823
vt 0.382597 0.694049
vt 0.383088 0.693925
vt 0.386678 0.692404
vt 0.384839 0.693480
vt 0.383000 0.692405
vt 0.387776 0.693487
vt 0.386528 0.694714
vt 0.391083 0.695898
vt 0.388519 0.695531
vt 0.389240 0.694088
vt 0.392230 0.697045
vt 0.389736 0.697043
vt 0.390199 0.699874
vt 0.389480 0.698431
vt 0.392042 0.698065
vt 0.387852 0.700216
vt 0.386605 0.698987
vt 0.387079 0.694048
vt 0.387079 0.694048
vt 0.383314 0.694755
vt 0.998015 0.699717
vt 0.694559 0.396813
vt 0.082550 0.393873
vt 0.687173 0.999684
vn 0.8971 0.4221 -0.1303
vn 0.7491 0.6625 -0.0000
vn 0.8971 0.4221 0.1303
vn -0.1303 0.4221 -0.8971
vn -0.0000 0.6625 -0.7491
vn 0.1303 0.4221 -0.8971
vn 0.1303 0.4221 0.8971
vn 0.0000 0.6625 0.7491
vn -0.1303 0.4221 0.8971
vn -0.8971 0.4222 0.1303
vn -0.7491 0.6625 0.0000
vn -0.8971 0.4222 -0.1303
vn 0.1942 -0.9616 0.1942
vn 0.6811 -0.7089 0.1830
vn 0.6298 -0.4546 0.6298
vn 0.1830 -0.7089 0.6811
vn 0.9870 -0.0629 0.1480
vn 0.8587 0.1684 0.4840
vn 0.7180 0.5550 0.4201
vn 0.4201 0.5550 0.7180
vn 0.4840 0.1684 0.8587
vn 0.1480 -0.0629 0.9870
vn -0.1942 -0.9616 0.1942
vn -0.1830 -0.7089 0.6811
vn -0.6298 -0.4547 0.6298
vn -0.6811 -0.7089 0.1830
vn -0.1480 -0.0629 0.9870
vn -0.4840 0.1684 0.8587
vn -0.4201 0.5550 0.7180
vn -0.7180 0.5550 0.4201
vn -0.8587 0.1684 0.4840
vn -0.9870 -0.0629 0.1480
vn -0.1942 -0.9616 -0.1942
vn -0.6811 -0.7089 -0.1830
vn -0.6298 -0.4546 -0.6298
vn -0.1830 -0.7089 -0.6811
vn -0.9870 -0.0629 -0.1480
vn -0.8587 0.1684 -0.4840
vn -0.7180 0.5550 -0.4201
vn -0.4201 0.5550 -0.7180
vn -0.4840 0.1684 -0.8587
vn -0.1480 -0.0629 -0.9870
vn 0.1942 -0.9616 -0.1942
vn 0.1830 -0.7089 -0.6811
vn 0.6298 -0.4547 -0.6298
vn 0.6811 -0.7089 -0.1830
vn 0.1480 -0.0629 -0.9870
vn 0.4840 0.1684 -0.8587
vn 0.4201 0.5550 -0.7180
vn 0.7180 0.5550 -0.4201
vn 0.8587 0.1684 -0.4840
vn 0.9870 -0.0629 -0.1480
vn 0.5922 0.7460 -0.3046
vn 0.3478 0.9376 -0.0000
vn 0.5922 0.7460 0.3045
vn 0.3046 0.7460 -0.5922
vn -0.0000 0.9376 -0.3478
vn -0.3046 0.7460 -0.5922
vn -0.5922 0.7460 -0.3045
vn -0.3478 0.9376 0.0000
vn -0.5922 0.7460 0.3046
vn -0.3046 0.7460 0.5922
vn 0.0000 0.9376 0.3478
vn 0.3046 0.7460 0.5922
usemtl Material.001
s 1
f 39/1/1 49/2/2 2/3/3
f 27/4/4 50/5/5 38/6/6
f 3/7/7 52/8/8 14/9/9
f 15/10/10 51/11/11 26/12/12
f 1/13/13 4/14/14 6/15/15 5/16/16
f 4/17/14 8/18/17 9/19/18 6/20/15
f 2/3/3 7/21/19 9/22/18 8/23/17
f 7/21/19 11/24/20 12/25/21 9/22/18
f 3/7/7 10/26/22 12/27/21 11/28/20
f 10/26/22 5/29/16 6/30/15 12/27/21
f 6/20/15 9/31/18 12/32/21
f 13/33/23 16/34/24 18/35/25 17/36/26
f 16/37/24 20/38/27 21/39/28 18/40/25
f 14/9/9 19/41/29 21/42/28 20/43/27
f 19/41/29 23/44/30 24/45/31 21/42/28
f 15/10/10 22/46/32 24/47/31 23/48/30
f 22/46/32 17/49/26 18/50/25 24/47/31
f 18/40/25 21/51/28 24/52/31
f 25/53/33 28/54/34 30/55/35 29/56/36
f 28/57/34 32/58/37 33/59/38 30/60/35
f 26/12/12 31/61/39 33/62/38 32/63/37
f 31/61/39 35/64/40 36/65/41 33/62/38
f 27/4/4 34/66/42 36/67/41 35/68/40
f 34/66/42 29/69/36 30/70/35 36/67/41
f 30/60/35 33/71/38 36/72/41
f 37/73/43 40/74/44 42/75/45 41/76/46
f 40/77/44 44/78/47 45/79/48 42/80/45
f 38/6/6 43/81/49 45/82/48 44/83/47
f 43/81/49 47/84/50 48/85/51 45/82/48
f 39/1/1 46/86/52 48/87/51 47/88/50
f 46/86/52 41/89/46 42/90/45 48/87/51
f 42/80/45 45/91/48 48/85/51
f 49/2/2 53/92/53 55/93/54 54/94/55
f 53/95/53 57/96/56 58/97/57 55/98/54
f 50/5/5 56/99/58 58/100/57 57/101/56
f 56/99/58 60/102/59 61/103/60 58/100/57
f 51/11/11 59/104/61 61/105/60 60/106/59
f 59/104/61 63/107/62 64/108/63 61/105/60
f 52/8/8 62/109/64 64/110/63 63/111/62
f 62/109/64 54/112/55 55/113/54 64/110/63
f 55/98/54 58/114/57 61/115/60 64/116/63
f 3/7/7 14/9/9 20/43/27 10/26/22
f 10/26/22 20/43/27 16/117/24 5/29/16
f 5/16/16 16/34/24 13/33/23 1/13/13
f 2/3/3 49/2/2 54/94/55 7/21/19
f 7/21/19 54/94/55 62/109/64 11/28/20
f 11/28/20 62/109/64 52/8/8 3/7/7
f 51/11/11 15/10/10 23/48/30 59/104/61
f 59/104/61 23/48/30 19/41/29 63/111/62
f 63/111/62 19/41/29 14/9/9 52/8/8
f 15/10/10 26/12/12 32/63/37 22/46/32
f 22/46/32 32/63/37 28/118/34 17/49/26
f 17/36/26 28/54/34 25/53/33 13/33/23
f 50/5/5 27/4/4 35/68/40 56/99/58
f 56/99/58 35/68/40 31/61/39 60/106/59
f 60/106/59 31/61/39 26/12/12 51/11/11
f 27/4/4 38/6/6 44/83/47 34/66/42
f 34/66/42 44/83/47 40/119/44 29/69/36
f 29/56/36 40/74/44 37/73/43 25/53/33
f 49/2/2 39/1/1 47/88/50 53/92/53
f 53/95/53 47/84/50 43/81/49 57/101/56
f 57/101/56 43/81/49 38/6/6 50/5/5
f 39/1/1 2/3/3 8/23/17 46/86/52
f 46/86/52 8/23/17 4/120/14 41/89/46
f 41/76/46 4/14/14 1/13/13 37/73/43
f 1/13/13 13/33/23 25/53/33 37/73/43
